<?xml version="1.0" encoding="UTF-8" standalone="no"?>
<!-- Created with Inkscape (http://www.inkscape.org/) -->

<svg
   width="161.78152mm"
   height="166.11128mm"
   viewBox="0 0 161.78152 166.11128"
   version="1.1"
   id="svg1"
   xml:space="preserve"
   xmlns:inkscape="http://www.inkscape.org/namespaces/inkscape"
   xmlns:sodipodi="http://sodipodi.sourceforge.net/DTD/sodipodi-0.dtd"
   xmlns="http://www.w3.org/2000/svg"
   xmlns:svg="http://www.w3.org/2000/svg"><sodipodi:namedview
     id="namedview1"
     pagecolor="#ffffff"
     bordercolor="#000000"
     borderopacity="0.25"
     inkscape:showpageshadow="2"
     inkscape:pageopacity="0.0"
     inkscape:pagecheckerboard="0"
     inkscape:deskcolor="#d1d1d1"
     inkscape:document-units="mm"
     inkscape:zoom="0.023162177"
     inkscape:cx="388.56451"
     inkscape:cy="561.25984"
     inkscape:window-width="1496"
     inkscape:window-height="831"
     inkscape:window-x="0"
     inkscape:window-y="34"
     inkscape:window-maximized="1"
     inkscape:current-layer="layer1"><inkscape:page
       x="0"
       y="0"
       width="161.78152"
       height="166.11128"
       id="page2"
       margin="0"
       bleed="0" /></sodipodi:namedview><defs
     id="defs1" /><g
     inkscape:label="Layer 1"
     inkscape:groupmode="layer"
     id="layer1"
     transform="translate(475.00762,-336.20046)"><path
       d="m -315.06089,472.35719 c 1.98762,-0.90274 1.83193,4.17132 1.83193,-59.70289 0,-54.41877 -0.0245,-57.46352 -0.46671,-58.1385 -0.25669,-0.39176 -0.78717,-0.92231 -1.17884,-1.179 -0.66504,-0.43584 -2.30273,-0.47152 -24.76574,-0.53961 -17.80886,-0.054 -24.14862,0.006 -24.4196,0.23083 -0.30962,0.25696 -0.36599,9.48421 -0.36599,59.90658 0,54.10592 0.0386,59.61765 0.41851,59.76344 0.23019,0.0883 11.09464,0.15799 24.14323,0.15479 22.5179,-0.006 23.77958,-0.0307 24.80321,-0.49564 z m -4.91495,-52.6798 c -0.49968,-0.49968 -0.52917,-0.88194 -0.52917,-6.86027 0,-6.92175 0.0528,-7.1671 1.54026,-7.15859 1.50137,0.009 1.49565,-0.0155 1.58284,6.65807 0.0442,3.38414 0.017,6.40539 -0.0604,6.71389 -0.13495,0.5377 -0.97707,1.12045 -1.67363,1.15816 -0.1819,0.01 -0.56886,-0.22022 -0.8599,-0.51126 z"
       style="fill:#000000;fill-opacity:0"
       id="path6"
       inkscape:export-filename="CharlieCupboardOpen.svg"
       inkscape:export-xdpi="96"
       inkscape:export-ydpi="96" /><path
       style="fill:#000000"
       d="m -468.22079,502.01105 c -0.43126,-0.15791 -0.81824,-0.57794 -0.99218,-1.07692 -0.4043,-1.15976 -0.37736,-9.00774 0.0323,-9.41742 0.46202,-0.46202 104.73632,-0.46202 105.19834,0 0.40888,0.40888 0.437,8.25659 0.0337,9.41341 -0.18958,0.54382 -0.554,0.90824 -1.09782,1.09781 -0.51997,0.18127 -4.19099,0.28378 -10.16222,0.28378 h -9.34819 l -0.17488,-0.7276 c -0.26691,-1.11055 -1.037,-2.51553 -1.72768,-3.15206 -1.46325,-1.34854 -2.49778,-1.45316 -13.47901,-1.36307 l -10.16081,0.0834 -1.13406,0.73697 c -1.27897,0.83114 -2.17077,2.10904 -2.17224,3.11271 -0.002,1.12986 -0.43775,1.30969 -3.17599,1.30969 -2.75215,0 -3.175,-0.17802 -3.175,-1.33671 0,-1.02703 -1.04276,-2.40541 -2.39149,-3.16121 l -1.18038,-0.66145 h -10.58334 -10.58333 l -1.18039,0.66145 c -1.23789,0.69369 -2.30534,2.01437 -2.55349,3.15929 -0.0807,0.37244 -0.19263,0.826 -0.24867,1.0079 -0.12724,0.41303 -18.62042,0.4412 -19.74322,0.0301 z m 1.50077,-12.00005 c -1.23242,-0.43563 -2.38743,-1.68697 -2.61711,-2.83536 -0.3123,-1.56147 -0.1822,-10.93067 0.15648,-11.26935 0.24481,-0.2448 12.29299,-0.3175 52.61969,-0.3175 45.18197,0 52.34521,0.0518 52.61816,0.38073 0.22928,0.27625 0.29262,1.92792 0.23084,6.01927 -0.0836,5.53916 -0.0968,5.65416 -0.7466,6.52423 -1.43307,1.91887 3.26521,1.75391 -51.72604,1.81612 -42.06845,0.0476 -49.63556,-5e-5 -50.53542,-0.31814 z m -2.4474,-17.24046 c -0.47432,-0.19542 -0.48747,-119.15667 -0.0132,-119.63091 0.40841,-0.40841 46.91815,-0.45947 48.38088,-0.0531 0.51759,0.14379 1.2915,0.62718 1.71979,1.07421 l 0.77871,0.81278 0.0727,57.33108 c 0.0799,63.01221 0.18107,58.89745 -1.47546,60.02161 -0.67778,0.45996 -1.9392,0.48691 -24.92329,0.53255 -13.31516,0.0264 -24.35821,-0.0133 -24.54011,-0.0882 z m 46.44658,-53.22175 c 0.26435,-0.34576 0.32497,-1.92101 0.26458,-6.87467 -0.0846,-6.94244 -0.0813,-6.92722 -1.53355,-6.92722 -1.4532,0 -1.44884,-0.0198 -1.53442,6.9803 -0.0772,6.31709 -0.0651,6.49336 0.48595,7.04438 0.64401,0.64401 1.73491,0.53914 2.31744,-0.22279 z m 9.69108,52.89272 c -1.98762,-0.90274 -1.83193,4.17132 -1.83193,-59.70289 0,-54.41877 0.0245,-57.46352 0.46671,-58.1385 0.25669,-0.39176 0.78717,-0.92231 1.17884,-1.179 0.66504,-0.43584 2.30273,-0.47152 24.76574,-0.53961 17.80886,-0.054 24.14862,0.006 24.4196,0.23083 0.30962,0.25696 0.36599,9.48421 0.36599,59.90658 0,54.10592 -0.0386,59.61765 -0.41851,59.76344 -0.23019,0.0883 -11.09464,0.15799 -24.14323,0.15479 -22.5179,-0.006 -23.77958,-0.0307 -24.80321,-0.49564 z m 4.91495,-52.6798 c 0.49968,-0.49968 0.52917,-0.88194 0.52917,-6.86027 0,-6.92175 -0.0528,-7.1671 -1.54026,-7.15859 -1.50137,0.009 -1.49565,-0.0155 -1.58284,6.65807 -0.0442,3.38414 -0.017,6.40539 0.0604,6.71389 0.13495,0.5377 0.97707,1.12045 1.67363,1.15816 0.1819,0.01 0.56886,-0.22022 0.8599,-0.51126 z m -60.84761,-69.31118 c -0.21468,-0.13576 -0.63139,-0.74827 -0.92604,-1.36113 -0.70764,-1.47189 -1.65819,-2.13381 -3.2893,-2.29054 -0.73578,-0.0707 -1.46176,-0.27794 -1.6133,-0.46053 -0.17499,-0.21085 -0.24916,-2.10538 -0.20328,-5.19232 l 0.0722,-4.86034 58.19236,-0.0667 c 46.37934,-0.0532 58.23506,5.2e-4 58.40272,0.26458 0.35544,0.5598 0.26562,9.57105 -0.099,9.9357 -0.17462,0.17463 -0.70799,0.3175 -1.18527,0.3175 -1.6376,0 -2.90381,0.72341 -3.50506,2.00252 -0.30163,0.64169 -0.54842,1.27433 -0.54842,1.40587 0,0.13154 -0.18833,0.31143 -0.41851,0.39976 -0.70613,0.27097 -104.449,0.17766 -104.8791,-0.0943 z"
       id="path7" /></g></svg>
