<?xml version="1.0" encoding="UTF-8" standalone="no"?>
<!-- Created with Inkscape (http://www.inkscape.org/) -->

<svg
   width="116.9057mm"
   height="166.11125mm"
   viewBox="0 0 116.9057 166.11125"
   version="1.1"
   id="svg1"
   xml:space="preserve"
   xmlns:inkscape="http://www.inkscape.org/namespaces/inkscape"
   xmlns:sodipodi="http://sodipodi.sourceforge.net/DTD/sodipodi-0.dtd"
   xmlns="http://www.w3.org/2000/svg"
   xmlns:svg="http://www.w3.org/2000/svg"><sodipodi:namedview
     id="namedview1"
     pagecolor="#ffffff"
     bordercolor="#000000"
     borderopacity="0.25"
     inkscape:showpageshadow="2"
     inkscape:pageopacity="0.0"
     inkscape:pagecheckerboard="0"
     inkscape:deskcolor="#d1d1d1"
     inkscape:document-units="mm"
     inkscape:zoom="0.023162177"
     inkscape:cx="388.56451"
     inkscape:cy="561.25984"
     inkscape:window-width="1496"
     inkscape:window-height="831"
     inkscape:window-x="0"
     inkscape:window-y="34"
     inkscape:window-maximized="1"
     inkscape:current-layer="layer1"><inkscape:page
       x="4.3829764e-14"
       y="-1.0069445e-12"
       width="116.90569"
       height="166.11127"
       id="page2"
       margin="0"
       bleed="0" /></sodipodi:namedview><defs
     id="defs1" /><g
     inkscape:label="Layer 1"
     inkscape:groupmode="layer"
     id="layer1"
     transform="translate(120.13351,-232.58868)"><path
       style="fill:#000000"
       d="m -217.87988,259.31685 c -3.897,-0.57778 -7.10487,-2.85825 -8.74537,-6.21706 -0.7146,-1.46312 -0.77525,-1.81554 -0.77399,-4.49792 0.001,-2.70605 0.0589,-3.03118 0.82081,-4.63021 1.46842,-3.08182 3.9896,-5.30343 5.56876,-4.90709 1.08074,0.27125 1.93916,1.32107 1.93916,2.37152 0,0.74702 -0.27452,1.23573 -1.40721,2.50516 -0.77397,0.8674 -1.54788,2.04658 -1.71979,2.62039 -1.24197,4.14531 1.43572,7.72877 5.77521,7.72877 3.27357,0 4.89594,-1.91385 7.62572,-8.99583 0.42069,-1.09141 1.02707,-2.81781 1.34751,-3.83646 2.59415,-8.24637 3.25745,-10.05518 3.9956,-10.89588 0.42871,-0.48828 0.85529,-1.21302 0.94794,-1.61054 0.0927,-0.39751 0.55877,-1.91337 1.03583,-3.36858 0.86203,-2.62955 4.10464,-12.69061 5.88385,-18.25625 0.51172,-1.60073 1.5525,-4.81542 2.31285,-7.14375 0.76035,-2.32833 1.71786,-5.33466 2.12782,-6.68073 0.63289,-2.07808 0.82798,-2.44433 1.29283,-2.42706 0.883,0.0328 2.66702,0.66081 2.6312,0.92624 -0.0553,0.40946 -1.20587,4.05419 -5.25574,16.64822 -1.26348,3.92906 -2.57327,7.97718 -2.91065,8.99583 -3.24539,9.79868 -4.18941,13.06613 -4.24257,14.68437 -0.0448,1.36403 -0.54886,3.19758 -2.43665,8.86355 -2.61086,7.83616 -4.11374,11.30953 -5.97891,13.8181 -2.53703,3.4122 -5.90695,4.88748 -9.83421,4.30521 z m 114.43229,-47.50517 c -3.65816,-1.89966 -11.52826,-4.54296 -16.00729,-5.3763 -0.87312,-0.16245 -2.30187,-0.42622 -3.175,-0.58615 -0.87312,-0.15993 -3.67109,-0.35198 -6.21771,-0.42677 -7.83539,-0.23014 -14.21897,0.95555 -20.8767,3.87764 -1.05901,0.4648 -1.98632,0.78423 -2.06071,0.70984 -0.0744,-0.0744 0.0449,-0.70851 0.26506,-1.40916 1.9885,-6.32806 3.60243,-17.75578 3.61765,-25.61558 0.0167,-8.6132 -1.75979,-19.46446 -4.67805,-28.575 -1.83842,-5.73937 -5.54856,-14.19534 -8.41641,-19.18229 -1.84564,-3.20941 -2.24667,-3.93804 -2.24667,-4.08195 0,-0.45724 7.42433,3.07124 11.39618,5.41614 4.08751,2.41318 9.29731,6.12515 12.41073,8.84262 3.88894,3.39435 9.59933,9.38725 12.87659,13.5136 5.4951,6.91882 11.20639,16.36002 15.11905,24.99292 0.4287,0.94589 1.03293,2.2779 1.34274,2.96003 2.71804,5.98454 6.9204,18.51031 8.34964,24.88737 0.19941,0.88975 -0.0716,0.89821 -1.6991,0.053 z m -55.43021,-5.43628 c -9.85801,-9.93594 -22.92226,-17.15537 -35.32188,-19.5192 -5.162,-0.98407 -7.68078,-1.18717 -14.68437,-1.18409 -6.5315,0.003 -7.49429,0.0636 -11.23381,0.70864 -4.61531,0.79609 -4.77348,0.8104 -4.77348,0.4318 0,-0.60086 2.53759,-6.68669 4.24362,-10.17735 8.93095,-18.27337 22.11619,-31.51054 41.61108,-41.77493 3.37577,-1.7774 10.4074,-4.74886 10.74456,-4.54049 0.17375,0.10739 2.38248,3.65775 3.7884,6.08958 1.43898,2.489 4.59544,9.00993 5.84571,12.07663 3.80836,9.34131 5.69402,17.01154 6.65423,27.06723 0.8033,8.41242 0.28683,16.71759 -1.61391,25.95282 -0.87834,4.26765 -1.78855,7.61841 -2.09701,7.71975 -0.139,0.0457 -1.56241,-1.23701 -3.16314,-2.85039 z m -70.87148,-22.93046 c -7.30955,-12.46811 -20.60608,-21.17098 -37.65857,-24.64836 -1.48319,-0.30246 -2.76311,-0.54992 -2.84427,-0.54992 -0.81462,0 1.7468,-2.25916 7.52536,-6.63736 12.45321,-9.43533 25.59437,-16.50503 39.55521,-21.28 3.73019,-1.27582 9.79642,-2.75359 15.74271,-3.83502 7.7215,-1.40427 20.52678,-1.39506 28.17812,0.0203 2.7701,0.51242 5.54262,1.07629 5.95313,1.21075 0.21828,0.0715 -1.98438,1.29056 -4.89479,2.70903 -11.5737,5.64075 -19.6429,11.30354 -27.92213,19.59512 -9.34847,9.36243 -15.82221,19.14618 -20.49324,30.97137 -0.83349,2.11005 -1.60337,3.99725 -1.71085,4.19379 -0.13207,0.24148 -0.5959,-0.32578 -1.43068,-1.74968 z m 62.27252,-57.19487 c -0.65484,-0.25124 -1.17009,-0.56642 -1.14499,-0.70042 0.0651,-0.34728 3.119,-8.99903 4.8958,-13.86966 0.98738,-2.70665 1.36961,-3.47092 1.86979,-3.7386 0.34959,-0.1871 0.61222,-0.17261 0.87861,0.0485 0.73117,0.60681 0.63147,1.10899 -2.01948,10.17242 -0.98817,3.37849 -1.22736,4.21504 -1.8345,6.41615 -0.66702,2.41821 -0.67921,2.42592 -2.64523,1.67164 z"
       id="path1"
       inkscape:export-filename="CharlieUmbrella1.svg"
       inkscape:export-xdpi="96"
       inkscape:export-ydpi="96" /><path
       style="fill:#000000"
       d="m -113.34667,398.39926 c -0.43126,-0.15791 -0.81824,-0.57794 -0.99218,-1.07692 -0.4043,-1.15976 -0.37736,-9.00774 0.0323,-9.41742 0.46202,-0.46202 104.7363217,-0.46202 105.1983417,0 0.40888,0.40888 0.437,8.25659 0.0337,9.41341 -0.18958,0.54382 -0.554,0.90824 -1.0978197,1.09781 -0.51997,0.18127 -4.19099,0.28378 -10.16222,0.28378 h -9.34819 l -0.17488,-0.7276 c -0.26691,-1.11055 -1.037,-2.51553 -1.72768,-3.15206 -1.46325,-1.34854 -2.49778,-1.45316 -13.47901,-1.36307 l -10.16081,0.0834 -1.13406,0.73697 c -1.27897,0.83114 -2.17077,2.10904 -2.17224,3.11271 -0.002,1.12986 -0.43775,1.30969 -3.17599,1.30969 -2.75215,0 -3.175,-0.17802 -3.175,-1.33671 0,-1.02703 -1.04276,-2.40541 -2.39149,-3.16121 l -1.18038,-0.66145 h -10.58334 -10.58333 l -1.18039,0.66145 c -1.23789,0.69369 -2.30534,2.01437 -2.55349,3.15929 -0.0807,0.37244 -0.19263,0.826 -0.24867,1.0079 -0.12724,0.41303 -18.620422,0.4412 -19.743222,0.0301 z m 1.50077,-12.00005 c -1.23242,-0.43563 -2.38743,-1.68697 -2.61711,-2.83536 -0.3123,-1.56147 -0.1822,-10.93067 0.15648,-11.26935 0.24481,-0.2448 12.29299,-0.3175 52.619692,-0.3175 45.18197,0 52.3452097,0.0518 52.6181597,0.38073 0.22928,0.27625 0.29262,1.92792 0.23084,6.01927 -0.0836,5.53916 -0.0968,5.65416 -0.7466,6.52423 -1.4330697,1.91887 3.26521,1.75391 -51.7260397,1.81612 -42.068452,0.0476 -49.635562,-5e-5 -50.535422,-0.31814 z m -2.4474,-17.24046 c -0.47432,-0.19542 -0.48747,-119.15667 -0.0132,-119.63091 0.40841,-0.40841 46.918152,-0.45947 48.380882,-0.0531 0.51759,0.14379 1.2915,0.62718 1.71979,1.07421 l 0.77871,0.81278 0.0727,57.33108 c 0.0799,63.01221 0.18107,58.89745 -1.47546,60.02161 -0.67778,0.45996 -1.9392,0.48691 -24.92329,0.53255 -13.315162,0.0264 -24.358212,-0.0133 -24.540112,-0.0882 z M -67.846718,315.937 c 0.26435,-0.34576 0.32497,-1.92101 0.26458,-6.87467 -0.0846,-6.94244 -0.0813,-6.92722 -1.53355,-6.92722 -1.4532,0 -1.44884,-0.0198 -1.53442,6.9803 -0.0772,6.31709 -0.0651,6.49336 0.48595,7.04438 0.64401,0.64401 1.73491,0.53914 2.31744,-0.22279 z m 9.69108,52.89272 c -1.98762,-0.90274 -1.83193,4.17132 -1.83193,-59.70289 0,-54.41877 0.0245,-57.46352 0.46671,-58.1385 0.25669,-0.39176 0.78717,-0.92231 1.17884,-1.179 0.66504,-0.43584 2.30273,-0.47152 24.76574,-0.53961 17.80886,-0.054 24.1486197,0.006 24.4195997,0.23083 0.30962,0.25696 0.36599,9.48421 0.36599,59.90658 0,54.10592 -0.0386,59.61765 -0.41851,59.76344 -0.23019,0.0883 -11.0946397,0.15799 -24.1432297,0.15479 -22.5179,-0.006 -23.77958,-0.0307 -24.80321,-0.49564 z m 4.91495,-52.6798 c 0.49968,-0.49968 0.52917,-0.88194 0.52917,-6.86027 0,-6.92175 -0.0528,-7.1671 -1.54026,-7.15859 -1.50137,0.009 -1.49565,-0.0155 -1.58284,6.65807 -0.0442,3.38414 -0.017,6.40539 0.0604,6.71389 0.13495,0.5377 0.97707,1.12045 1.67363,1.15816 0.1819,0.01 0.56886,-0.22022 0.8599,-0.51126 z M -114.0883,246.83874 c -0.21468,-0.13576 -0.63139,-0.74827 -0.92604,-1.36113 -0.70764,-1.47189 -1.65819,-2.13381 -3.2893,-2.29054 -0.73578,-0.0707 -1.46176,-0.27794 -1.6133,-0.46053 -0.17499,-0.21085 -0.24916,-2.10538 -0.20328,-5.19232 l 0.0722,-4.86034 58.192362,-0.0667 c 46.37934,-0.0532 58.2350597,5.2e-4 58.4027197,0.26458 0.35544,0.5598 0.26562,9.57105 -0.099,9.9357 -0.17462,0.17463 -0.70799,0.3175 -1.18527,0.3175 -1.6376,0 -2.90381,0.72341 -3.50506,2.00252 -0.30163,0.64169 -0.54842,1.27433 -0.54842,1.40587 0,0.13154 -0.18833,0.31143 -0.41851,0.39976 -0.70613,0.27097 -104.4490017,0.17766 -104.8791017,-0.0943 z"
       id="path3" /></g></svg>
