<?xml version="1.0" encoding="UTF-8" standalone="no"?>

<svg
   width="139.85687mm"
   height="111.02157mm"
   viewBox="0 0 139.85687 111.02157"
   version="1.1"
   id="svg1"
   xml:space="preserve"
   xmlns:inkscape="http://www.inkscape.org/namespaces/inkscape"
   xmlns:sodipodi="http://sodipodi.sourceforge.net/DTD/sodipodi-0.dtd"
   xmlns="http://www.w3.org/2000/svg"
   xmlns:svg="http://www.w3.org/2000/svg"><sodipodi:namedview
     id="namedview1"
     pagecolor="#ffffff"
     bordercolor="#000000"
     borderopacity="0.25"
     inkscape:showpageshadow="2"
     inkscape:pageopacity="0.0"
     inkscape:pagecheckerboard="0"
     inkscape:deskcolor="#d1d1d1"
     inkscape:document-units="mm"
     inkscape:zoom="0.023162177"
     inkscape:cx="388.56451"
     inkscape:cy="561.25984"
     inkscape:window-width="1496"
     inkscape:window-height="831"
     inkscape:window-x="0"
     inkscape:window-y="34"
     inkscape:window-maximized="1"
     inkscape:current-layer="layer1"><inkscape:page
       x="0"
       y="0"
       width="139.85687"
       height="111.02157"
       id="page2"
       margin="0"
       bleed="0" /></sodipodi:namedview><defs
     id="defs1" /><g
     inkscape:label="Layer 1"
     inkscape:groupmode="layer"
     id="layer1"
     transform="translate(-264.53625,-18.071046)"><path
       style="fill:#000000"
       d="m 272.98261,128.77716 c -0.71498,-0.19525 -1.90561,-0.65166 -2.64583,-1.01426 -1.39619,-0.68391 -3.59482,-2.54568 -3.59482,-3.04404 0,-0.1569 -0.10312,-0.28527 -0.22916,-0.28527 -0.12604,0 -0.62232,-0.8632 -1.10284,-1.91823 l -0.87369,-1.91823 0.005,-37.835407 0.005,-37.83542 0.707,-1.56725 c 1.86427,-4.13267 5.6231,-6.61511 10.35281,-6.83727 l 1.32292,-0.0622 0.14552,-1.09015 c 0.08,-0.59959 0.35067,-1.40326 0.60141,-1.78594 l 0.45589,-0.69578 h 7.64792 c 8.69308,0 8.23774,-0.1168 8.76715,2.24886 l 0.32569,1.45531 h 6.57248 6.57248 v -4.67757 c 0,-4.758164 0.11326,-5.51645 1.15874,-7.757851 0.63795,-1.367686 3.11649,-3.900116 4.43063,-4.526969 3.27295,-1.561209 3.23575,-1.558447 20.99214,-1.558447 17.43956,0 17.67339,0.01576 20.46526,1.379033 1.47334,0.719434 3.81194,3.001006 4.54118,4.430442 1.18578,2.324323 1.32087,3.141537 1.32486,8.015002 l 0.004,4.69636 h 6.57997 6.57996 l 0.14197,-0.87485 c 0.0781,-0.48116 0.32571,-1.3146 0.55029,-1.85208 l 0.40831,-0.97724 h 7.78632 c 8.79867,0 8.24703,-0.13788 8.76975,2.19189 l 0.30962,1.37998 1.43638,0.0669 c 3.0637,0.14262 5.39023,1.0762 7.51297,3.01475 1.24818,1.13989 2.66445,3.46375 3.20126,5.25276 0.10916,0.3638 0.19073,17.47349 0.18126,38.02153 -0.0131,28.542577 -0.0931,37.597147 -0.33863,38.364577 -1.14912,3.59138 -4.69908,6.90498 -8.19443,7.64884 -0.50932,0.10839 -28.07229,0.22095 -61.25104,0.25013 -49.76204,0.0438 -60.55262,-0.009 -61.62497,-0.30193 z m 80.01351,-95.230827 c 0,-2.54441 -0.0916,-3.240531 -0.55684,-4.230221 -0.66016,-1.40444 -1.97025,-2.620093 -3.64926,-3.386221 -1.18536,-0.540879 -1.56728,-0.555584 -14.31473,-0.55115 -12.69974,0.0044 -13.1338,0.02127 -14.31473,0.555705 -1.67512,0.758089 -2.98783,1.974537 -3.64926,3.381666 -0.46521,0.98969 -0.55684,1.685811 -0.55684,4.230221 v 3.0456 h 18.52083 18.52083 z"
       id="path2"
       inkscape:export-filename="CharlieBriefcase.svg"
       inkscape:export-xdpi="96"
       inkscape:export-ydpi="96" /></g></svg>
